<?xml version="1.0" standalone="no"?><!DOCTYPE svg PUBLIC "-//W3C//DTD SVG 1.1//EN" "http://www.w3.org/Graphics/SVG/1.1/DTD/svg11.dtd"><svg t="1695886880597" class="icon" viewBox="0 0 1024 1024" version="1.1" xmlns="http://www.w3.org/2000/svg" p-id="11758" width="16" height="16" xmlns:xlink="http://www.w3.org/1999/xlink"><path d="M851.662179 0h-482.5459a172.337821 172.337821 0 0 0-172.337821 171.711138v25.06732h-25.06732A172.337821 172.337821 0 0 0 0 369.116279v482.5459a172.337821 172.337821 0 0 0 171.711138 172.337821h483.172583a172.337821 172.337821 0 0 0 171.711138-172.337821v-25.06732h25.06732a172.337821 172.337821 0 0 0 172.337821-171.711138V171.711138A172.337821 172.337821 0 0 0 851.662179 0z m-150.403917 851.662179a47.001224 47.001224 0 0 1-46.374541 47.001224H171.711138a47.001224 47.001224 0 0 1-46.374541-47.001224v-482.5459a47.001224 47.001224 0 0 1 46.374541-47.001224h483.172583a47.001224 47.001224 0 0 1 46.374541 47.001224v482.5459z m197.405141-196.778458a47.001224 47.001224 0 0 1-47.001224 46.374541h-25.06732v-332.141983a172.337821 172.337821 0 0 0-171.711138-172.337821H322.115055v-25.06732A47.001224 47.001224 0 0 1 369.116279 125.336597h482.5459a47.001224 47.001224 0 0 1 47.001224 46.374541z" fill="#cdcdcd" p-id="11759"></path></svg>